<svg width="231" height="131" viewBox="0 0 231 131" fill="none" xmlns="http://www.w3.org/2000/svg">
<rect width="231" height="131" rx="11" fill="#5C6A7D"/>
<path d="M85.2422 39.6758H72.4004L69.959 47H62.1709L75.4033 11.4531H82.1904L95.4961 47H87.708L85.2422 39.6758ZM74.3779 33.7432H83.2646L78.7969 20.4375L74.3779 33.7432ZM122.645 17.3857H111.756V47H104.432V17.3857H93.6895V11.4531H122.645V17.3857ZM136.414 11.4531L145.545 37.2344L154.627 11.4531H164.246V47H156.897V37.2832L157.63 20.5107L148.035 47H143.006L133.436 20.5352L134.168 37.2832V47H126.844V11.4531H136.414Z" fill="url(#paint0_linear)"/>
<path d="M137.168 59.4961C137.168 59.082 136.961 58.7578 136.547 58.5234C136.141 58.2812 135.484 58.0664 134.578 57.8789C131.562 57.2461 130.055 55.9648 130.055 54.0352C130.055 52.9102 130.52 51.9727 131.449 51.2227C132.387 50.4648 133.609 50.0859 135.117 50.0859C136.727 50.0859 138.012 50.4648 138.973 51.2227C139.941 51.9805 140.426 52.9648 140.426 54.1758H137.039C137.039 53.6914 136.883 53.293 136.57 52.9805C136.258 52.6602 135.77 52.5 135.105 52.5C134.535 52.5 134.094 52.6289 133.781 52.8867C133.469 53.1445 133.312 53.4727 133.312 53.8711C133.312 54.2461 133.488 54.5508 133.84 54.7852C134.199 55.0117 134.801 55.2109 135.645 55.3828C136.488 55.5469 137.199 55.7344 137.777 55.9453C139.566 56.6016 140.461 57.7383 140.461 59.3555C140.461 60.5117 139.965 61.4492 138.973 62.168C137.98 62.8789 136.699 63.2344 135.129 63.2344C134.066 63.2344 133.121 63.0469 132.293 62.6719C131.473 62.2891 130.828 61.7695 130.359 61.1133C129.891 60.4492 129.656 59.7344 129.656 58.9688H132.867C132.898 59.5703 133.121 60.0312 133.535 60.3516C133.949 60.6719 134.504 60.832 135.199 60.832C135.848 60.832 136.336 60.7109 136.664 60.4688C137 60.2188 137.168 59.8945 137.168 59.4961ZM147.387 58.207L149.73 50.3203H153.363L148.266 64.9688L147.984 65.6367C147.227 67.293 145.977 68.1211 144.234 68.1211C143.742 68.1211 143.242 68.0469 142.734 67.8984V65.332L143.25 65.3438C143.891 65.3438 144.367 65.2461 144.68 65.0508C145 64.8555 145.25 64.5312 145.43 64.0781L145.828 63.0352L141.387 50.3203H145.031L147.387 58.207ZM161.566 59.4961C161.566 59.082 161.359 58.7578 160.945 58.5234C160.539 58.2812 159.883 58.0664 158.977 57.8789C155.961 57.2461 154.453 55.9648 154.453 54.0352C154.453 52.9102 154.918 51.9727 155.848 51.2227C156.785 50.4648 158.008 50.0859 159.516 50.0859C161.125 50.0859 162.41 50.4648 163.371 51.2227C164.34 51.9805 164.824 52.9648 164.824 54.1758H161.438C161.438 53.6914 161.281 53.293 160.969 52.9805C160.656 52.6602 160.168 52.5 159.504 52.5C158.934 52.5 158.492 52.6289 158.18 52.8867C157.867 53.1445 157.711 53.4727 157.711 53.8711C157.711 54.2461 157.887 54.5508 158.238 54.7852C158.598 55.0117 159.199 55.2109 160.043 55.3828C160.887 55.5469 161.598 55.7344 162.176 55.9453C163.965 56.6016 164.859 57.7383 164.859 59.3555C164.859 60.5117 164.363 61.4492 163.371 62.168C162.379 62.8789 161.098 63.2344 159.527 63.2344C158.465 63.2344 157.52 63.0469 156.691 62.6719C155.871 62.2891 155.227 61.7695 154.758 61.1133C154.289 60.4492 154.055 59.7344 154.055 58.9688H157.266C157.297 59.5703 157.52 60.0312 157.934 60.3516C158.348 60.6719 158.902 60.832 159.598 60.832C160.246 60.832 160.734 60.7109 161.062 60.4688C161.398 60.2188 161.566 59.8945 161.566 59.4961ZM171.105 47.2031V50.3203H173.273V52.8047H171.105V59.1328C171.105 59.6016 171.195 59.9375 171.375 60.1406C171.555 60.3438 171.898 60.4453 172.406 60.4453C172.781 60.4453 173.113 60.418 173.402 60.3633V62.9297C172.738 63.1328 172.055 63.2344 171.352 63.2344C168.977 63.2344 167.766 62.0352 167.719 59.6367V52.8047H165.867V50.3203H167.719V47.2031H171.105ZM180.996 63.2344C179.137 63.2344 177.621 62.6641 176.449 61.5234C175.285 60.3828 174.703 58.8633 174.703 56.9648V56.6367C174.703 55.3633 174.949 54.2266 175.441 53.2266C175.934 52.2188 176.629 51.4453 177.527 50.9062C178.434 50.3594 179.465 50.0859 180.621 50.0859C182.355 50.0859 183.719 50.6328 184.711 51.7266C185.711 52.8203 186.211 54.3711 186.211 56.3789V57.7617H178.137C178.246 58.5898 178.574 59.2539 179.121 59.7539C179.676 60.2539 180.375 60.5039 181.219 60.5039C182.523 60.5039 183.543 60.0312 184.277 59.0859L185.941 60.9492C185.434 61.668 184.746 62.2305 183.879 62.6367C183.012 63.0352 182.051 63.2344 180.996 63.2344ZM180.609 52.8281C179.938 52.8281 179.391 53.0547 178.969 53.5078C178.555 53.9609 178.289 54.6094 178.172 55.4531H182.883V55.1836C182.867 54.4336 182.664 53.8555 182.273 53.4492C181.883 53.0352 181.328 52.8281 180.609 52.8281ZM191.32 50.3203L191.426 51.7383C192.324 50.6367 193.539 50.0859 195.07 50.0859C196.703 50.0859 197.824 50.7305 198.434 52.0195C199.324 50.7305 200.594 50.0859 202.242 50.0859C203.617 50.0859 204.641 50.4883 205.312 51.293C205.984 52.0898 206.32 53.293 206.32 54.9023V63H202.922V54.9141C202.922 54.1953 202.781 53.6719 202.5 53.3438C202.219 53.0078 201.723 52.8398 201.012 52.8398C199.996 52.8398 199.293 53.3242 198.902 54.293L198.914 63H195.527V54.9258C195.527 54.1914 195.383 53.6602 195.094 53.332C194.805 53.0039 194.312 52.8398 193.617 52.8398C192.656 52.8398 191.961 53.2383 191.531 54.0352V63H188.145V50.3203H191.32Z" fill="url(#paint1_linear)"/>
<rect x="17" y="55" width="28" height="21" rx="5" fill="#FFF969"/>
<path fill-rule="evenodd" clip-rule="evenodd" d="M30 55H26V76H30V67H45V64H30V55Z" fill="#FFBA34"/>
<rect x="17" y="92" width="42" height="9" rx="4.5" fill="white"/>
<rect x="17" y="107" width="89" height="9" rx="4.5" fill="white"/>
<rect x="115" y="107" width="42" height="9" rx="4.5" fill="white"/>
<rect x="66" y="92" width="42" height="9" rx="4.5" fill="white"/>
<rect x="115" y="92" width="42" height="9" rx="4.5" fill="white"/>
<rect x="164" y="92" width="42" height="9" rx="4.5" fill="white"/>
<defs>
<linearGradient id="paint0_linear" x1="62" y1="29" x2="168" y2="29" gradientUnits="userSpaceOnUse">
<stop stop-color="#DDDFFC"/>
<stop offset="1" stop-color="#FFC5F4"/>
</linearGradient>
<linearGradient id="paint1_linear" x1="129" y1="55" x2="208" y2="55" gradientUnits="userSpaceOnUse">
<stop stop-color="#DEDFFD"/>
<stop offset="1" stop-color="#FFC5F4"/>
</linearGradient>
</defs>
</svg>
